<svg width="53" height="48" viewBox="0 0 53 48" fill="none" xmlns="http://www.w3.org/2000/svg">
<path d="M14.5522 9.90909H10.5465C10.5181 9.57765 10.4424 9.27699 10.3192 9.0071C10.2009 8.73722 10.0352 8.50521 9.82209 8.31108C9.61375 8.11222 9.36044 7.9607 9.06214 7.85653C8.76385 7.74763 8.42531 7.69318 8.04652 7.69318C7.38364 7.69318 6.82256 7.85417 6.36328 8.17614C5.90874 8.49811 5.56309 8.95975 5.32635 9.56108C5.09434 10.1624 4.97834 10.8845 4.97834 11.7273C4.97834 12.6174 5.09671 13.3632 5.33345 13.9645C5.57493 14.5611 5.92294 15.0109 6.37749 15.3139C6.83203 15.6122 7.37891 15.7614 8.01811 15.7614C8.38269 15.7614 8.7094 15.7164 8.99822 15.6264C9.28705 15.5317 9.538 15.3968 9.75107 15.2216C9.96413 15.0464 10.137 14.8357 10.2695 14.5895C10.4068 14.3385 10.4992 14.0568 10.5465 13.7443L14.5522 13.7727C14.5049 14.3883 14.332 15.0156 14.0337 15.6548C13.7354 16.2893 13.3117 16.8764 12.7624 17.4162C12.2179 17.9512 11.5432 18.3821 10.7383 18.7088C9.93336 19.0355 8.99822 19.1989 7.93288 19.1989C6.59766 19.1989 5.39974 18.9124 4.33913 18.3395C3.28326 17.7666 2.44756 16.9238 1.83203 15.8111C1.22124 14.6984 0.915838 13.3371 0.915838 11.7273C0.915838 10.108 1.22834 8.74432 1.85334 7.63636C2.47834 6.52367 3.32114 5.68324 4.38175 5.11506C5.44235 4.54214 6.62607 4.25568 7.93288 4.25568C8.85144 4.25568 9.69661 4.38115 10.4684 4.6321C11.2402 4.88305 11.9173 5.25 12.4996 5.73295C13.082 6.21117 13.5508 6.80066 13.9059 7.50142C14.261 8.20218 14.4764 9.00473 14.5522 9.90909ZM21.6562 19.1989C20.4725 19.1989 19.4593 18.9645 18.6165 18.4957C17.7737 18.0223 17.1274 17.3641 16.6776 16.5213C16.2277 15.6738 16.0028 14.6913 16.0028 13.5739C16.0028 12.4564 16.2277 11.4763 16.6776 10.6335C17.1274 9.78598 17.7737 9.12784 18.6165 8.65909C19.4593 8.18561 20.4725 7.94886 21.6562 7.94886C22.84 7.94886 23.8532 8.18561 24.696 8.65909C25.5388 9.12784 26.1851 9.78598 26.6349 10.6335C27.0848 11.4763 27.3097 12.4564 27.3097 13.5739C27.3097 14.6913 27.0848 15.6738 26.6349 16.5213C26.1851 17.3641 25.5388 18.0223 24.696 18.4957C23.8532 18.9645 22.84 19.1989 21.6562 19.1989ZM21.6847 16.3011C22.0161 16.3011 22.3026 16.1899 22.544 15.9673C22.7855 15.7448 22.9725 15.4276 23.1051 15.0156C23.2377 14.6037 23.304 14.1136 23.304 13.5455C23.304 12.9725 23.2377 12.4825 23.1051 12.0753C22.9725 11.6634 22.7855 11.3461 22.544 11.1236C22.3026 10.901 22.0161 10.7898 21.6847 10.7898C21.3343 10.7898 21.0336 10.901 20.7827 11.1236C20.5317 11.3461 20.34 11.6634 20.2074 12.0753C20.0748 12.4825 20.0085 12.9725 20.0085 13.5455C20.0085 14.1136 20.0748 14.6037 20.2074 15.0156C20.34 15.4276 20.5317 15.7448 20.7827 15.9673C21.0336 16.1899 21.3343 16.3011 21.6847 16.3011ZM32.8494 19.142C32.0729 19.142 31.358 18.9384 30.7045 18.5312C30.0559 18.1241 29.535 17.5062 29.142 16.6776C28.7538 15.849 28.5597 14.8049 28.5597 13.5455C28.5597 12.2292 28.7633 11.1591 29.1705 10.3352C29.5824 9.51136 30.1127 8.90767 30.7614 8.52415C31.4148 8.14062 32.1013 7.94886 32.821 7.94886C33.3608 7.94886 33.8343 8.04356 34.2415 8.23295C34.6487 8.41761 34.9896 8.66619 35.2642 8.97869C35.5388 9.28646 35.7472 9.625 35.8892 9.99432H35.946V4.45455H39.8665V19H35.9744V17.2102H35.8892C35.7377 17.5795 35.5199 17.911 35.2358 18.2045C34.9564 18.4934 34.6155 18.723 34.2131 18.8935C33.8153 19.0592 33.3608 19.142 32.8494 19.142ZM34.2983 16.1307C34.6581 16.1307 34.9659 16.0265 35.2216 15.8182C35.482 15.6051 35.6809 15.3068 35.8182 14.9233C35.9602 14.535 36.0312 14.0758 36.0312 13.5455C36.0312 13.0057 35.9602 12.544 35.8182 12.1605C35.6809 11.7723 35.482 11.4763 35.2216 11.2727C34.9659 11.0644 34.6581 10.9602 34.2983 10.9602C33.9384 10.9602 33.6307 11.0644 33.375 11.2727C33.1241 11.4763 32.9299 11.7723 32.7926 12.1605C32.66 12.544 32.5938 13.0057 32.5938 13.5455C32.5938 14.0852 32.66 14.5492 32.7926 14.9375C32.9299 15.321 33.1241 15.617 33.375 15.8253C33.6307 16.0289 33.9384 16.1307 34.2983 16.1307ZM47.0185 19.1989C45.8537 19.1989 44.8499 18.9763 44.0071 18.5312C43.169 18.0814 42.5227 17.4375 42.0682 16.5994C41.6184 15.7566 41.3935 14.7481 41.3935 13.5739C41.3935 12.447 41.6207 11.4621 42.0753 10.6193C42.5298 9.77651 43.1714 9.12074 44 8.65199C44.8286 8.18324 45.8063 7.94886 46.9332 7.94886C47.7571 7.94886 48.5028 8.0767 49.1705 8.33239C49.8381 8.58807 50.4086 8.95975 50.8821 9.44744C51.3556 9.9304 51.7202 10.5175 51.9759 11.2088C52.2315 11.9001 52.3594 12.679 52.3594 13.5455V14.4545H42.6151V12.2955H48.7514C48.7467 11.983 48.6662 11.7083 48.5099 11.4716C48.3584 11.2301 48.1525 11.0431 47.892 10.9105C47.6364 10.7732 47.3452 10.7045 47.0185 10.7045C46.7012 10.7045 46.41 10.7732 46.1449 10.9105C45.8797 11.0431 45.6667 11.2277 45.5057 11.4645C45.3494 11.7012 45.2666 11.9782 45.2571 12.2955V14.625C45.2571 14.9754 45.3305 15.2879 45.4773 15.5625C45.6241 15.8371 45.8348 16.0526 46.1094 16.2088C46.384 16.3651 46.7154 16.4432 47.1037 16.4432C47.3736 16.4432 47.6198 16.4053 47.8423 16.3295C48.0696 16.2538 48.2637 16.1449 48.4247 16.0028C48.5857 15.8561 48.7041 15.6809 48.7798 15.4773H52.3594C52.2363 16.2348 51.9451 16.893 51.4858 17.4517C51.0265 18.0057 50.4181 18.4366 49.6605 18.7443C48.9077 19.0473 48.027 19.1989 47.0185 19.1989Z" fill="black"/>
<path d="M10.2022 43H5.94087L10.742 28.4545H16.1397L20.9409 43H16.6795L13.4977 32.4602H13.3841L10.2022 43ZM9.40678 37.2614H17.4181V40.2159H9.40678V37.2614ZM27.9384 43H22.3418V28.4545H27.8816C29.3778 28.4545 30.6704 28.7457 31.7594 29.3281C32.8532 29.9058 33.696 30.7391 34.2878 31.8281C34.8844 32.9124 35.1827 34.2121 35.1827 35.7273C35.1827 37.2424 34.8868 38.5445 34.2949 39.6335C33.7031 40.7178 32.865 41.5511 31.7807 42.1335C30.6964 42.7112 29.4157 43 27.9384 43ZM26.2907 39.6477H27.7963C28.516 39.6477 29.1292 39.5317 29.6358 39.2997C30.1472 39.0677 30.5355 38.6676 30.8006 38.0994C31.0705 37.5312 31.2054 36.7405 31.2054 35.7273C31.2054 34.714 31.0681 33.9233 30.7935 33.3551C30.5236 32.7869 30.1259 32.3868 29.6003 32.1548C29.0795 31.9228 28.4403 31.8068 27.6827 31.8068H26.2907V39.6477ZM37.0098 43V28.4545H47.4927V31.6364H40.9586V34.1364H46.9529V37.3182H40.9586V39.8182H47.4643V43H37.0098Z" fill="black"/>
</svg>
